<svg xmlns="http://www.w3.org/2000/svg" xmlns:xlink="http://www.w3.org/1999/xlink" contentStyleType="text/css" data-diagram-type="ACTIVITY" height="1124px" preserveAspectRatio="none" style="width:1186px;height:1124px;background:#FFFFFF;" version="1.1" viewBox="0 0 1186 1124" width="1186px" zoomAndPan="magnify"><title>&#1055;&#1086;&#1083;&#1100;&#1079;&#1086;&#1074;&#1072;&#1090;&#1077;&#1083;&#1100; &#1079;&#1072;&#1075;&#1088;&#1091;&#1078;&#1072;&#1077;&#1090; &#1074;&#1080;&#1076;&#1077;&#1086; &#1085;&#1072; &#1089;&#1074;&#1086;&#1081; &#1082;&#1072;&#1085;&#1072;&#1083; YouTube</title><defs/><g><g class="title" data-source-line="1"><text fill="#000000" font-family="sans-serif" font-size="14" font-weight="bold" lengthAdjust="spacing" textLength="449.3672" x="367.1355" y="32.9951">&#1055;&#1086;&#1083;&#1100;&#1079;&#1086;&#1074;&#1072;&#1090;&#1077;&#1083;&#1100; &#1079;&#1072;&#1075;&#1088;&#1091;&#1078;&#1072;&#1077;&#1090; &#1074;&#1080;&#1076;&#1077;&#1086; &#1085;&#1072; &#1089;&#1074;&#1086;&#1081; &#1082;&#1072;&#1085;&#1072;&#1083; YouTube</text></g><rect fill="none" height="20.9531" style="stroke:none;stroke-width:1;" width="1153.6382" x="15" y="50.042"/><ellipse cx="373.8242" cy="85.9951" fill="#222222" rx="10" ry="10" style="stroke:#222222;stroke-width:1;"/><rect fill="#F1F1F1" height="33.9688" rx="12.5" ry="12.5" style="stroke:#181818;stroke-width:0.5;" width="122.1113" x="312.7686" y="115.9951"/><text fill="#000000" font-family="sans-serif" font-size="12" lengthAdjust="spacing" textLength="102.1113" x="322.7686" y="137.1338">&#1044;&#1086;&#1073;&#1072;&#1074;&#1080;&#1090;&#1100; &#1074;&#1080;&#1076;&#1077;&#1086;</text><rect fill="#F1F1F1" height="33.9688" rx="12.5" ry="12.5" style="stroke:#181818;stroke-width:0.5;" width="111.0371" x="318.3057" y="169.9639"/><text fill="#000000" font-family="sans-serif" font-size="12" lengthAdjust="spacing" textLength="91.0371" x="328.3057" y="191.1025">&#1042;&#1099;&#1073;&#1088;&#1072;&#1090;&#1100; &#1092;&#1072;&#1081;&#1083;</text><rect fill="#F1F1F1" height="33.9688" rx="12.5" ry="12.5" style="stroke:#181818;stroke-width:0.5;" width="223.4961" x="262.0762" y="380.2725"/><text fill="#000000" font-family="sans-serif" font-size="12" lengthAdjust="spacing" textLength="203.4961" x="272.0762" y="401.4111">&#1055;&#1086;&#1082;&#1072;&#1079;&#1072;&#1090;&#1100; &#1089;&#1086;&#1086;&#1073;&#1097;&#1077;&#1085;&#1080;&#1077; &#1086;&#1073; &#1086;&#1096;&#1080;&#1073;&#1082;&#1077;</text><ellipse cx="373.8242" cy="444.2412" fill="none" rx="10" ry="10" style="stroke:#222222;stroke-width:1.5;"/><line style="stroke:#222222;stroke-width:2.5;" x1="367.637" x2="380.0114" y1="438.054" y2="450.4284"/><line style="stroke:#222222;stroke-width:2.5;" x1="380.0114" x2="367.637" y1="438.054" y2="450.4284"/><rect fill="#F1F1F1" height="33.9688" rx="12.5" ry="12.5" style="stroke:#181818;stroke-width:0.5;" width="422.1523" x="21" y="684.1475"/><text fill="#000000" font-family="sans-serif" font-size="12" lengthAdjust="spacing" textLength="402.1523" x="31" y="705.2861">&#1047;&#1072;&#1087;&#1086;&#1083;&#1085;&#1080;&#1090;&#1100; &#1080;&#1085;&#1092;&#1086;&#1088;&#1084;&#1072;&#1094;&#1080;&#1102; &#1086; &#1074;&#1080;&#1076;&#1077;&#1086; (&#1085;&#1072;&#1079;&#1074;&#1072;&#1085;&#1080;&#1077;, &#1086;&#1087;&#1080;&#1089;&#1072;&#1085;&#1080;&#1077;, &#1087;&#1088;&#1077;&#1074;&#1100;&#1102;)</text><rect fill="#F1F1F1" height="33.9688" rx="12.5" ry="12.5" style="stroke:#181818;stroke-width:0.5;" width="223.4961" x="481.1523" y="788.585"/><text fill="#000000" font-family="sans-serif" font-size="12" lengthAdjust="spacing" textLength="203.4961" x="491.1523" y="809.7236">&#1055;&#1086;&#1082;&#1072;&#1079;&#1072;&#1090;&#1100; &#1089;&#1086;&#1086;&#1073;&#1097;&#1077;&#1085;&#1080;&#1077; &#1086;&#1073; &#1086;&#1096;&#1080;&#1073;&#1082;&#1077;</text><ellipse cx="592.9004" cy="852.5537" fill="none" rx="10" ry="10" style="stroke:#222222;stroke-width:1.5;"/><line style="stroke:#222222;stroke-width:2.5;" x1="586.7132" x2="599.0876" y1="846.3665" y2="858.7409"/><line style="stroke:#222222;stroke-width:2.5;" x1="599.0876" x2="586.7132" y1="846.3665" y2="858.7409"/><rect fill="#F1F1F1" height="33.9688" rx="12.5" ry="12.5" style="stroke:#181818;stroke-width:0.5;" width="189.3125" x="279.168" y="984.5225"/><text fill="#000000" font-family="sans-serif" font-size="12" lengthAdjust="spacing" textLength="169.3125" x="289.168" y="1005.6611">&#1055;&#1086;&#1083;&#1091;&#1095;&#1080;&#1090;&#1100; &#1089;&#1089;&#1099;&#1083;&#1082;&#1091; &#1085;&#1072; &#1074;&#1080;&#1076;&#1077;&#1086;</text><rect fill="#F1F1F1" height="33.9688" rx="12.5" ry="12.5" style="stroke:#181818;stroke-width:0.5;" width="189.916" x="278.8662" y="1038.4912"/><text fill="#000000" font-family="sans-serif" font-size="12" lengthAdjust="spacing" textLength="169.916" x="288.8662" y="1059.6299">&#1042;&#1080;&#1076;&#1077;&#1086; &#1091;&#1089;&#1087;&#1077;&#1096;&#1085;&#1086; &#1079;&#1072;&#1075;&#1088;&#1091;&#1078;&#1077;&#1085;&#1086;</text><ellipse cx="373.8242" cy="1102.46" fill="none" rx="10" ry="10" style="stroke:#222222;stroke-width:1.5;"/><line style="stroke:#222222;stroke-width:2.5;" x1="367.637" x2="380.0114" y1="1096.2728" y2="1108.6471"/><line style="stroke:#222222;stroke-width:2.5;" x1="380.0114" x2="367.637" y1="1096.2728" y2="1108.6471"/><line style="stroke:#000000;stroke-width:1.5;" x1="15" x2="15" y1="50.042" y2="1112.46"/><rect fill="#F1F1F1" height="33.9688" rx="12.5" ry="12.5" style="stroke:#181818;stroke-width:0.5;" width="158.6152" x="737.2305" y="223.9326"/><text fill="#000000" font-family="sans-serif" font-size="12" lengthAdjust="spacing" textLength="138.6152" x="747.2305" y="245.0713">&#1055;&#1088;&#1086;&#1074;&#1077;&#1088;&#1080;&#1090;&#1100; &#1090;&#1080;&#1087; &#1092;&#1072;&#1081;&#1083;&#1072;</text><rect fill="#F1F1F1" height="33.9688" rx="12.5" ry="12.5" style="stroke:#181818;stroke-width:0.5;" width="179.7793" x="726.6484" y="326.3037"/><text fill="#000000" font-family="sans-serif" font-size="12" lengthAdjust="spacing" textLength="159.7793" x="736.6484" y="347.4424">&#1042;&#1077;&#1088;&#1085;&#1091;&#1090;&#1100; &#1086;&#1096;&#1080;&#1073;&#1082;&#1091; &#1082;&#1083;&#1080;&#1077;&#1085;&#1090;&#1091;</text><polygon fill="#F1F1F1" points="753.2075,277.9014,879.8687,277.9014,891.8687,289.9014,879.8687,301.9014,753.2075,301.9014,741.2075,289.9014,753.2075,277.9014" style="stroke:#181818;stroke-width:0.5;"/><text fill="#000000" font-family="sans-serif" font-size="11" lengthAdjust="spacing" textLength="20.3672" x="820.5381" y="312.1118">&#1085;&#1077;&#1090;</text><text fill="#000000" font-family="sans-serif" font-size="11" lengthAdjust="spacing" textLength="126.6611" x="753.2075" y="293.7095">&#1044;&#1086;&#1087;&#1091;&#1089;&#1090;&#1080;&#1084;&#1099;&#1081; &#1092;&#1086;&#1088;&#1084;&#1072;&#1090;?</text><text fill="#000000" font-family="sans-serif" font-size="11" lengthAdjust="spacing" textLength="14.3462" x="891.8687" y="287.3071">&#1076;&#1072;</text><rect fill="#555555" height="6" rx="2.5" ry="2.5" style="stroke:#555555;stroke-width:1;" width="448.1289" x="714.6484" y="496.2412"/><rect fill="#F1F1F1" height="33.9688" rx="12.5" ry="12.5" style="stroke:#181818;stroke-width:0.5;" width="126.0195" x="962.0195" y="522.2412"/><text fill="#000000" font-family="sans-serif" font-size="12" lengthAdjust="spacing" textLength="106.0195" x="972.0195" y="543.3799">&#1047;&#1072;&#1075;&#1088;&#1091;&#1079;&#1080;&#1090;&#1100; &#1074;&#1080;&#1076;&#1077;&#1086;</text><rect fill="#F1F1F1" height="33.9688" rx="12.5" ry="12.5" style="stroke:#181818;stroke-width:0.5;" width="136.6719" x="956.6934" y="576.21"/><text fill="#000000" font-family="sans-serif" font-size="12" lengthAdjust="spacing" textLength="116.6719" x="966.6934" y="597.3486">&#1054;&#1073;&#1088;&#1072;&#1073;&#1086;&#1090;&#1072;&#1090;&#1100; &#1074;&#1080;&#1076;&#1077;&#1086;</text><rect fill="#F1F1F1" height="33.9688" rx="12.5" ry="12.5" style="stroke:#181818;stroke-width:0.5;" width="217.2031" x="916.4277" y="630.1787"/><text fill="#000000" font-family="sans-serif" font-size="12" lengthAdjust="spacing" textLength="197.2031" x="926.4277" y="651.3174">&#1055;&#1088;&#1086;&#1074;&#1077;&#1088;&#1080;&#1090;&#1100; &#1085;&#1072; &#1072;&#1074;&#1090;&#1086;&#1088;&#1089;&#1082;&#1080;&#1077; &#1087;&#1088;&#1072;&#1074;&#1072;</text><rect fill="#F1F1F1" height="33.9688" rx="12.5" ry="12.5" style="stroke:#181818;stroke-width:0.5;" width="179.7793" x="935.1396" y="734.6162"/><text fill="#000000" font-family="sans-serif" font-size="12" lengthAdjust="spacing" textLength="159.7793" x="945.1396" y="755.7549">&#1042;&#1077;&#1088;&#1085;&#1091;&#1090;&#1100; &#1086;&#1096;&#1080;&#1073;&#1082;&#1091; &#1082;&#1083;&#1080;&#1077;&#1085;&#1090;&#1091;</text><polygon fill="#F1F1F1" points="974.8096,686.2139,1075.249,686.2139,1087.249,698.2139,1075.249,710.2139,974.8096,710.2139,962.8096,698.2139,974.8096,686.2139" style="stroke:#181818;stroke-width:0.5;"/><text fill="#000000" font-family="sans-serif" font-size="11" lengthAdjust="spacing" textLength="14.3462" x="1029.0293" y="720.4243">&#1076;&#1072;</text><text fill="#000000" font-family="sans-serif" font-size="11" lengthAdjust="spacing" textLength="100.4395" x="974.8096" y="702.022">&#1045;&#1089;&#1090;&#1100; &#1085;&#1072;&#1088;&#1091;&#1096;&#1077;&#1085;&#1080;&#1103;?</text><text fill="#000000" font-family="sans-serif" font-size="11" lengthAdjust="spacing" textLength="20.3672" x="1087.249" y="695.6196">&#1085;&#1077;&#1090;</text><rect fill="#555555" height="6" rx="2.5" ry="2.5" style="stroke:#555555;stroke-width:1;" width="448.1289" x="714.6484" y="904.5537"/><rect fill="#F1F1F1" height="33.9688" rx="12.5" ry="12.5" style="stroke:#181818;stroke-width:0.5;" width="129.207" x="751.9346" y="930.5537"/><text fill="#000000" font-family="sans-serif" font-size="12" lengthAdjust="spacing" textLength="109.207" x="761.9346" y="951.6924">&#1057;&#1086;&#1093;&#1088;&#1072;&#1085;&#1080;&#1090;&#1100; &#1074;&#1080;&#1076;&#1077;&#1086;</text><line style="stroke:#000000;stroke-width:1.5;" x1="708.6484" x2="708.6484" y1="50.042" y2="1112.46"/><line style="stroke:#000000;stroke-width:1.5;" x1="1166.7773" x2="1166.7773" y1="50.042" y2="1112.46"/><line style="stroke:#181818;stroke-width:1;" x1="373.8242" x2="373.8242" y1="95.9951" y2="115.9951"/><polygon fill="#181818" points="369.8242,105.9951,373.8242,115.9951,377.8242,105.9951,373.8242,109.9951" style="stroke:#181818;stroke-width:1;"/><line style="stroke:#181818;stroke-width:1;" x1="373.8242" x2="373.8242" y1="149.9639" y2="169.9639"/><polygon fill="#181818" points="369.8242,159.9639,373.8242,169.9639,377.8242,159.9639,373.8242,163.9639" style="stroke:#181818;stroke-width:1;"/><line style="stroke:#181818;stroke-width:1;" x1="373.8242" x2="373.8242" y1="414.2412" y2="434.2412"/><polygon fill="#181818" points="369.8242,424.2412,373.8242,434.2412,377.8242,424.2412,373.8242,428.2412" style="stroke:#181818;stroke-width:1;"/><line style="stroke:#181818;stroke-width:1;" x1="592.9004" x2="592.9004" y1="822.5537" y2="842.5537"/><polygon fill="#181818" points="588.9004,832.5537,592.9004,842.5537,596.9004,832.5537,592.9004,836.5537" style="stroke:#181818;stroke-width:1;"/><line style="stroke:#181818;stroke-width:1;" x1="373.8242" x2="373.8242" y1="1018.4912" y2="1038.4912"/><polygon fill="#181818" points="369.8242,1028.4912,373.8242,1038.4912,377.8242,1028.4912,373.8242,1032.4912" style="stroke:#181818;stroke-width:1;"/><line style="stroke:#181818;stroke-width:1;" x1="373.8242" x2="373.8242" y1="1072.46" y2="1092.46"/><polygon fill="#181818" points="369.8242,1082.46,373.8242,1092.46,377.8242,1082.46,373.8242,1086.46" style="stroke:#181818;stroke-width:1;"/><line style="stroke:#181818;stroke-width:1;" x1="816.5381" x2="816.5381" y1="301.9014" y2="326.3037"/><polygon fill="#181818" points="812.5381,316.3037,816.5381,326.3037,820.5381,316.3037,816.5381,320.3037" style="stroke:#181818;stroke-width:1;"/><line style="stroke:#181818;stroke-width:1;" x1="891.8687" x2="927.7012" y1="289.9014" y2="289.9014"/><polygon fill="#181818" points="923.7012,377.2725,927.7012,387.2725,931.7012,377.2725,927.7012,381.2725" style="stroke:#181818;stroke-width:1;"/><line style="stroke:#181818;stroke-width:1;" x1="927.7012" x2="927.7012" y1="289.9014" y2="476.2412"/><line style="stroke:#181818;stroke-width:1;" x1="927.7012" x2="816.5381" y1="476.2412" y2="476.2412"/><line style="stroke:#181818;stroke-width:1;" x1="816.5381" x2="816.5381" y1="476.2412" y2="496.2412"/><polygon fill="#181818" points="812.5381,486.2412,816.5381,496.2412,820.5381,486.2412,816.5381,490.2412" style="stroke:#181818;stroke-width:1;"/><line style="stroke:#181818;stroke-width:1;" x1="816.5381" x2="816.5381" y1="257.9014" y2="277.9014"/><polygon fill="#181818" points="812.5381,267.9014,816.5381,277.9014,820.5381,267.9014,816.5381,271.9014" style="stroke:#181818;stroke-width:1;"/><line style="stroke:#181818;stroke-width:1;" x1="1025.0293" x2="1025.0293" y1="556.21" y2="576.21"/><polygon fill="#181818" points="1021.0293,566.21,1025.0293,576.21,1029.0293,566.21,1025.0293,570.21" style="stroke:#181818;stroke-width:1;"/><line style="stroke:#181818;stroke-width:1;" x1="1025.0293" x2="1025.0293" y1="610.1787" y2="630.1787"/><polygon fill="#181818" points="1021.0293,620.1787,1025.0293,630.1787,1029.0293,620.1787,1025.0293,624.1787" style="stroke:#181818;stroke-width:1;"/><line style="stroke:#181818;stroke-width:1;" x1="1025.0293" x2="1025.0293" y1="710.2139" y2="734.6162"/><polygon fill="#181818" points="1021.0293,724.6162,1025.0293,734.6162,1029.0293,724.6162,1025.0293,728.6162" style="stroke:#181818;stroke-width:1;"/><line style="stroke:#181818;stroke-width:1;" x1="1087.249" x2="1146.7773" y1="698.2139" y2="698.2139"/><polygon fill="#181818" points="1142.7773,785.585,1146.7773,795.585,1150.7773,785.585,1146.7773,789.585" style="stroke:#181818;stroke-width:1;"/><line style="stroke:#181818;stroke-width:1;" x1="1146.7773" x2="1146.7773" y1="698.2139" y2="884.5537"/><line style="stroke:#181818;stroke-width:1;" x1="1146.7773" x2="1025.0293" y1="884.5537" y2="884.5537"/><line style="stroke:#181818;stroke-width:1;" x1="1025.0293" x2="1025.0293" y1="884.5537" y2="904.5537"/><polygon fill="#181818" points="1021.0293,894.5537,1025.0293,904.5537,1029.0293,894.5537,1025.0293,898.5537" style="stroke:#181818;stroke-width:1;"/><line style="stroke:#181818;stroke-width:1;" x1="1025.0293" x2="1025.0293" y1="664.1475" y2="686.2139"/><polygon fill="#181818" points="1021.0293,676.2139,1025.0293,686.2139,1029.0293,676.2139,1025.0293,680.2139" style="stroke:#181818;stroke-width:1;"/><line style="stroke:#181818;stroke-width:1;" x1="1025.0293" x2="1025.0293" y1="502.2412" y2="522.2412"/><polygon fill="#181818" points="1021.0293,512.2412,1025.0293,522.2412,1029.0293,512.2412,1025.0293,516.2412" style="stroke:#181818;stroke-width:1;"/><line style="stroke:#181818;stroke-width:1;" x1="816.5381" x2="816.5381" y1="910.5537" y2="930.5537"/><polygon fill="#181818" points="812.5381,920.5537,816.5381,930.5537,820.5381,920.5537,816.5381,924.5537" style="stroke:#181818;stroke-width:1;"/><line style="stroke:#181818;stroke-width:1;" x1="373.8242" x2="373.8242" y1="203.9326" y2="208.9326"/><line style="stroke:#181818;stroke-width:1;" x1="373.8242" x2="816.5381" y1="208.9326" y2="208.9326"/><line style="stroke:#181818;stroke-width:1;" x1="816.5381" x2="816.5381" y1="208.9326" y2="223.9326"/><polygon fill="#181818" points="812.5381,213.9326,816.5381,223.9326,820.5381,213.9326,816.5381,217.9326" style="stroke:#181818;stroke-width:1;"/><line style="stroke:#181818;stroke-width:1;" x1="816.5381" x2="816.5381" y1="360.2725" y2="365.2725"/><line style="stroke:#181818;stroke-width:1;" x1="816.5381" x2="373.8242" y1="365.2725" y2="365.2725"/><line style="stroke:#181818;stroke-width:1;" x1="373.8242" x2="373.8242" y1="365.2725" y2="380.2725"/><polygon fill="#181818" points="369.8242,370.2725,373.8242,380.2725,377.8242,370.2725,373.8242,374.2725" style="stroke:#181818;stroke-width:1;"/><line style="stroke:#181818;stroke-width:1;" x1="1025.0293" x2="1025.0293" y1="768.585" y2="773.585"/><line style="stroke:#181818;stroke-width:1;" x1="1025.0293" x2="592.9004" y1="773.585" y2="773.585"/><line style="stroke:#181818;stroke-width:1;" x1="592.9004" x2="592.9004" y1="773.585" y2="788.585"/><polygon fill="#181818" points="588.9004,778.585,592.9004,788.585,596.9004,778.585,592.9004,782.585" style="stroke:#181818;stroke-width:1;"/><line style="stroke:#181818;stroke-width:1;" x1="721.6484" x2="721.6484" y1="502.2412" y2="506.2412"/><line style="stroke:#181818;stroke-width:1;" x1="721.6484" x2="232.0762" y1="506.2412" y2="506.2412"/><line style="stroke:#181818;stroke-width:1;" x1="232.0762" x2="232.0762" y1="506.2412" y2="684.1475"/><polygon fill="#181818" points="228.0762,674.1475,232.0762,684.1475,236.0762,674.1475,232.0762,678.1475" style="stroke:#181818;stroke-width:1;"/><line style="stroke:#181818;stroke-width:1;" x1="232.0762" x2="232.0762" y1="718.1162" y2="890.5537"/><line style="stroke:#181818;stroke-width:1;" x1="232.0762" x2="721.6484" y1="890.5537" y2="890.5537"/><line style="stroke:#181818;stroke-width:1;" x1="721.6484" x2="721.6484" y1="890.5537" y2="904.5537"/><polygon fill="#181818" points="717.6484,894.5537,721.6484,904.5537,725.6484,894.5537,721.6484,898.5537" style="stroke:#181818;stroke-width:1;"/><line style="stroke:#181818;stroke-width:1;" x1="816.5381" x2="816.5381" y1="964.5225" y2="969.5225"/><line style="stroke:#181818;stroke-width:1;" x1="816.5381" x2="373.8242" y1="969.5225" y2="969.5225"/><line style="stroke:#181818;stroke-width:1;" x1="373.8242" x2="373.8242" y1="969.5225" y2="984.5225"/><polygon fill="#181818" points="369.8242,974.5225,373.8242,984.5225,377.8242,974.5225,373.8242,978.5225" style="stroke:#181818;stroke-width:1;"/><text fill="#000000" font-family="sans-serif" font-size="18" lengthAdjust="spacing" textLength="69.3105" x="327.1689" y="66.75">&#1050;&#1083;&#1080;&#1077;&#1085;&#1090;</text><text fill="#000000" font-family="sans-serif" font-size="18" lengthAdjust="spacing" textLength="68.1768" x="903.6245" y="66.75">&#1057;&#1077;&#1088;&#1074;&#1077;&#1088;</text><!--SRC=[fLJBJi9G4DtVhvYb97u1BFm9Doun5YKIIA3iN53gCn9CZCR4XOG_A4Wj3zl-mimVUUOMa4Stna1AxxrdpfoPCnUtwjOSuW4dl90UH_WTSo1T3dLDs0ZuKphYynVUGkaIpgSymNb277D0uc4duHdn70Ziy89E6ktZzgbZp1M_ymBua6FfNXdJSijDrnJv1H4ZGC4bNSsp9YtXz5aUUIGTrO4pkGPmnekIqWsXeGCqdg0hyW2h95ilgQ1zokawYWF4LIjqO7Ecuejd4T_8CLDKWiXlJNLK8FV2gGCvuQ1Wd5hBmNkiHHSC4MJPB34ehEH4xi4puhduMlkwJF5BWEzKhl7QPErHj2hCmmRw80-AKYpfSeEPGwLowcUMSAjsR5OhnbGQpSlyR6_8bAgjIfqfdkBqj-1RRFT9RVnrzC0Q6EaCP8eELL8AfBUnau8XvB7qf5yeMGbKFYzNw_igLqAo4Ofot5R4H-OsAaxWJP2BsJVQJf_E469G4nJEinwcbcoipXFXQzr_LT-NKIe6BRPDbwSTtud-x7LE___Zzyhnd6xk3cKs1NYI7GHSY27ORcm3ufnkxrx8ulBc-tAtkZuUFe_0s59jYxVlvdfMz2fXD4A8ZtMADlygj3x08Um7]--></g></svg>